<svg width="36" height="40" viewBox="0 0 36 40" fill="none" xmlns="http://www.w3.org/2000/svg">
<rect width="36" height="40" fill="#3A58C2"/>
<rect x="12" y="8" width="12" height="4" fill="#62B9F8"/>
<rect x="12" y="12" width="12" height="4" fill="#FFD704"/>
<path d="M17.1216 24H16.1015V29.2611C16.1015 30.4822 15.6021 31.087 14.5502 31.087C13.5088 31.087 13.0094 30.4822 13.0094 29.2611V24H12V29.3409C12 30.9044 12.8819 32 14.5502 32C16.1971 32 17.1216 30.9044 17.1216 29.3409V24Z" fill="white"/>
<path d="M22.9374 31.8631H24L21.6624 24H20.3873L18.039 31.8631H19.0591L19.6116 29.8887H22.3849L22.9374 31.8631ZM19.856 29.01L21.0036 24.9016L22.1405 29.01H19.856Z" fill="white"/>
</svg>
